<svg width="90" height="91" viewBox="0 0 90 91" fill="none" xmlns="http://www.w3.org/2000/svg">
    <path fill-rule="evenodd" clip-rule="evenodd"
          d="M33.8963 1.08237C18.2336 4.87933 4.81869 18.4577 1.11506 34.2636C-1.35949 44.824 0.368914 57.878 5.46283 67.0965C8.76627 73.0745 17.4896 81.7957 23.1927 84.8223C29.7825 88.3195 37.0136 90.0592 44.9587 90.0592C57.952 90.0592 67.5728 86.0684 76.7384 76.8764C85.9083 67.6816 89.8844 58.0375 89.8844 44.9935C89.8844 32.1634 85.9311 22.4085 77.1222 13.5041C70.7321 7.04535 64.5539 3.36928 56.7066 1.35634C50.0861 -0.341132 40.2571 -0.459877 33.8963 1.08237ZM39.9026 19.2159C40.7543 19.673 41.9206 19.6273 43.3651 19.0808C45.1078 18.4205 45.7854 18.4577 46.7556 19.2646C49.6453 21.6702 45.6413 34.838 41.7936 35.5812C40.4012 35.8502 40.4026 36.1127 41.7544 29.1161C42.4135 25.7054 41.6852 22.8183 40.1658 22.8183C38.1635 22.8183 33.0767 29.0317 29.7311 35.5641C24.3783 46.0129 22.7141 57.285 26.1466 59.8373C30.2262 62.8703 38.5194 55.8708 40.7693 47.4972C42.166 42.2989 42.9414 40.7545 44.3873 40.2938C45.2419 40.022 46.2469 40.2702 46.8861 40.9119C47.8363 41.8647 47.792 42.4226 46.4866 45.9213C45.0899 49.6653 44.2546 55.9853 45.0514 56.7843C45.2554 56.9896 45.9752 55.1648 46.6507 52.7305C48.2108 47.103 51.634 38.9812 53.906 35.5154C55.5053 33.0762 55.9554 32.8329 58.8644 32.8329C62.3918 32.8329 62.6201 33.1498 60.8838 35.6356L59.7033 37.3259L62.2834 36.8402C64.3785 36.4461 65.1531 36.6456 66.4057 37.9018C67.6919 39.1915 67.8831 39.9998 67.5542 42.7581C67.3366 44.5779 66.9422 46.7103 66.6768 47.4972C66.3886 48.352 67.2189 47.7754 68.7391 46.0665C72.5889 41.7381 71.8727 44.618 67.7218 50.1603C63.6316 55.6212 59.0056 59.8602 56.4291 60.509C55.4668 60.7508 53.7698 60.6049 52.6584 60.1842C50.9214 59.5269 50.5305 59.6191 49.8764 60.8459C49.4569 61.6314 49.3071 62.7773 49.5433 63.3939C49.7794 64.0098 49.5119 65.0313 48.9498 65.6629C48.3877 66.2946 47.4639 68.4205 46.8961 70.3877C46.1264 73.058 45.5222 73.9643 44.5128 73.9643C43.3779 73.9643 43.1011 73.2762 42.7873 69.6724C42.5811 67.3118 42.0197 64.6772 41.5389 63.8181C41.0574 62.9583 40.6644 61.4296 40.6644 60.4203C40.6644 57.9782 39.9825 58.1041 37.1106 61.0748C35.7873 62.4447 33.6167 63.9247 32.2877 64.3646C22.7362 67.5257 16.869 56.0375 20.6212 41.522C22.107 35.7737 26.4149 26.3142 29.0685 22.9707C32.0958 19.1573 36.7732 17.5364 39.9026 19.2159ZM56.1623 44.7839C54.1935 49.2082 51.3644 56.2914 51.3644 56.7979C51.3644 56.966 51.9907 57.4402 52.7561 57.8508C53.8946 58.4617 54.4838 58.2378 55.9897 56.6241C58.0926 54.3715 60.8567 46.0966 60.5122 43.0879C60.1006 39.4969 58.1824 40.2452 56.1623 44.7839Z"
          fill="black"/>
</svg>
